<svg width="242.539" height="242.539" xmlns="http://www.w3.org/2000/svg" xmlns:svg="http://www.w3.org/2000/svg">
 <g>
  <title>Layer 1</title>
  <g id="svg_1">
   <path stroke="null" id="svg_6" fill="#08d18b" d="m32.352,242.539l177.834,0c13.198,0 23.896,-10.701 23.896,-23.896l0,-194.747c0,-13.197 -10.697,-23.896 -23.895,-23.896l-177.835,0c-13.194,0 -23.895,10.699 -23.895,23.896l0,194.748c0,13.193 10.701,23.895 23.895,23.895zm115.893,-22.304l-54.96,0l0,-46.199l54.96,0l0,46.199zm0,-55.758l-54.96,0l0,-41.42l54.96,0l0,41.42zm0,-50.974l-54.96,0l0,-44.603l54.96,0l0,44.603zm66.109,82.836c0,13.193 -10.701,23.896 -23.895,23.896l-32.656,0l0,-46.199l56.551,0l0,22.303zm0,-31.862l-56.551,0l0,-41.42l56.551,0l0,41.42zm0,-71.686l0,20.708l-56.551,0l0,-44.603l32.656,0c13.203,0 23.895,10.699 23.895,23.895zm-29.631,-77.551c11.229,0 17.88,8.541 17.88,19.604c0,12.956 -7.854,20.344 -18.458,20.344c-10.94,0 -17.824,-8.368 -17.824,-19.66c-0.001,-11.92 7.509,-20.288 18.402,-20.288zm-35.106,0.287c4.76,0 8.484,0.976 10.258,1.834l-1.54,5.673c-2.123,-0.974 -4.699,-1.662 -8.77,-1.662c-8.256,0 -14.043,4.87 -14.043,13.868c0,8.774 5.386,13.987 13.413,13.987c2.576,0 4.415,-0.343 5.33,-0.745l0,-9.687l-6.818,0l0,-5.559l13.642,0l0,19.546c-2.469,0.917 -7.281,2.18 -12.387,2.18c-6.534,0 -11.519,-1.664 -15.187,-5.162c-3.439,-3.269 -5.386,-8.368 -5.386,-14.213c0.057,-12.266 8.71,-20.06 21.488,-20.06zm-58.315,0.402l8.083,0l9.974,16.563c2.518,4.303 4.812,8.77 6.59,12.956l0.114,0c-0.516,-5.159 -0.63,-10.146 -0.63,-16.047l0,-13.468l6.532,0l0,38.63l-7.334,0l-10.091,-17.023c-2.464,-4.245 -4.984,-8.942 -6.877,-13.301l-0.229,0.058c0.287,4.984 0.401,10.088 0.401,16.449l0,13.817l-6.539,0l0,-38.634l0.006,0zm-15.077,0l7.05,0l0,38.629l-7.05,0l0,-38.629zm-33.034,0.574c2.238,-0.46 6.303,-0.861 10.319,-0.861c5.162,0 8.424,0.688 11.005,2.467c2.411,1.433 4.016,3.958 4.016,7.278c0,3.556 -2.238,6.762 -6.42,8.31l0,0.173c4.067,1.031 7.794,4.245 7.794,9.516c0,3.439 -1.491,6.135 -3.668,8.022c-2.753,2.353 -7.281,3.557 -14.386,3.557c-3.899,0 -6.819,-0.287 -8.655,-0.516l0,-37.946l-0.005,0zm-14.423,76.288c0,-13.196 10.702,-23.896 23.896,-23.896l31.064,0l0,44.603l-54.96,0l0,-20.707zm0,30.271l54.959,0l0,41.42l-54.959,0l0,-41.42zm0,50.974l54.959,0l0,46.199l-31.064,0c-13.194,0 -23.896,-10.702 -23.896,-23.896l0,-22.303l0.001,0z"/>
   <path id="svg_7" fill="#08d18b" d="m57.081,87.897c-2.425,0 -4.25,0.968 -5.439,2.345l-0.11,0c0.598,-3.354 3.02,-6.445 8.123,-7.042c0.894,-0.112 1.641,-0.149 2.311,-0.112l0,-3.612c-0.561,-0.037 -1.305,-0.037 -2.311,0.105c-3.463,0.264 -6.408,1.458 -8.606,3.58c-2.532,2.385 -4.209,6.146 -4.209,10.806c0,6.002 3.239,10.471 9.126,10.471c5.144,0 8.536,-4.025 8.536,-8.646c-0.005,-4.913 -3.244,-7.895 -7.421,-7.895zm-1.121,13.117c-3.015,0 -4.506,-2.609 -4.583,-5.815c0,-0.635 0.109,-1.085 0.296,-1.452c0.707,-1.458 2.238,-2.497 3.953,-2.497c2.681,0 4.209,1.975 4.209,4.81c0.001,2.9 -1.523,4.954 -3.875,4.954z"/>
   <polygon id="svg_8" fill="#08d18b" points="107.385,83.949 107.461,83.949 107.461,104.032 111.891,104.032 111.891,79.807 108.092,79.807 102.165,82.717     102.948,86.182   "/>
   <path id="svg_9" fill="#08d18b" d="m127.299,95.535c2.306,0 4.061,-0.784 5.293,-2.124l0.074,0c-0.448,2.308 -1.526,4.135 -3.132,5.4c-1.339,1.085 -3.092,1.717 -4.917,1.869c-1.081,0.11 -1.792,0.149 -2.532,0.077l0,3.652c0.707,0.037 1.715,0.037 2.756,-0.077c3.278,-0.224 6.182,-1.377 8.272,-3.312c2.534,-2.424 4.21,-6.114 4.21,-11.294c0,-5.92 -2.978,-10.316 -8.644,-10.316c-5.144,0 -8.723,3.985 -8.723,8.643c-0.003,4.46 3.128,7.482 7.343,7.482zm1.148,-12.745c2.986,0 4.214,2.795 4.214,6.076c0,0.633 -0.106,1.006 -0.266,1.34c-0.705,1.118 -2.044,2.011 -3.906,2.011c-2.534,0 -3.986,-1.935 -3.986,-4.434c0,-2.945 1.639,-4.993 3.944,-4.993z"/>
   <path id="svg_10" fill="#08d18b" d="m176.406,91.066l0,-0.077c2.978,-1.047 4.476,-3.131 4.476,-5.668c0,-3.169 -2.534,-5.922 -7.565,-5.922c-2.875,0 -5.591,0.929 -6.968,1.864l1.04,3.312c1.009,-0.667 2.987,-1.524 4.957,-1.524c2.688,0 3.883,1.376 3.883,3.059c0,2.385 -2.688,3.349 -4.77,3.349l-2.091,0l0,3.355l2.091,0c2.791,0 5.507,1.228 5.507,4.096c0,1.902 -1.372,3.881 -4.877,3.881c-2.31,0 -4.583,-0.932 -5.512,-1.491l-1.046,3.47c1.308,0.856 3.842,1.673 6.781,1.673c6.002,0 9.433,-3.246 9.433,-7.341c-0.047,-3.28 -2.39,-5.482 -5.339,-6.036z"/>
   <path id="svg_11" fill="#08d18b" d="m185.218,93.967c0,6.002 3.238,10.471 9.129,10.471c5.143,0 8.531,-4.025 8.531,-8.646c0,-4.917 -3.244,-7.898 -7.421,-7.898c-2.422,0 -4.247,0.968 -5.438,2.345l-0.107,0c0.598,-3.353 3.016,-6.445 8.116,-7.042c0.901,-0.112 1.647,-0.149 2.311,-0.112l0,-3.612c-0.556,-0.038 -1.302,-0.038 -2.311,0.105c-3.463,0.264 -6.407,1.458 -8.605,3.58c-2.53,2.387 -4.205,6.149 -4.205,10.809zm4.844,-0.219c0.7,-1.458 2.24,-2.497 3.948,-2.497c2.688,0 4.21,1.975 4.21,4.81c0,2.9 -1.521,4.954 -3.873,4.954c-3.016,0 -4.504,-2.609 -4.583,-5.815c0,-0.636 0.111,-1.086 0.298,-1.452z"/>
   <path id="svg_12" fill="#08d18b" d="m61.668,131.78l-5.407,0l-9.911,15.093l0,2.979l10.991,0l0,6.15l4.326,0l0,-6.15l3.129,0l0,-3.464l-3.129,0l0,-14.608l0.001,0zm-4.326,8.012l0,6.595l-6.595,0l0,-0.074l4.469,-6.637c0.745,-1.335 1.382,-2.566 2.121,-4.093l0.149,0c-0.072,1.452 -0.144,2.834 -0.144,4.209z"/>
   <path id="svg_13" fill="#08d18b" d="m116.66,152.203l-9.913,0l0,-0.074l2.084,-1.825c4.25,-3.916 7.304,-7.341 7.304,-11.598c0,-3.943 -2.604,-7.337 -7.976,-7.337c-3.055,0 -5.703,1.083 -7.456,2.497l1.342,3.244c1.23,-0.929 3.022,-2.017 5.181,-2.017c3.169,0 4.322,1.899 4.322,4.065c-0.04,3.206 -2.721,6.108 -8.422,11.406l-2.868,2.646l0,2.791l16.398,0l0,-3.799l0.004,0l0,0.001z"/>
   <path id="svg_14" fill="#08d18b" d="m130.352,156.001l4.326,0l0,-6.142l3.132,0l0,-3.473l-3.132,0l0,-14.606l-5.404,0l-9.913,15.093l0,2.979l10.991,0l0,6.149zm-6.595,-9.614l0,-0.074l4.476,-6.637c0.747,-1.335 1.382,-2.566 2.119,-4.093l0.149,0c-0.075,1.451 -0.149,2.833 -0.149,4.209l0,6.595l-6.595,0z"/>
   <path id="svg_15" fill="#08d18b" d="m172.383,152.763c-2.306,0 -4.583,-0.934 -5.517,-1.494l-1.036,3.473c1.303,0.858 3.837,1.671 6.777,1.671c6.002,0 9.432,-3.244 9.432,-7.337c-0.042,-3.281 -2.385,-5.483 -5.33,-6.039l0,-0.074c2.982,-1.046 4.477,-3.132 4.477,-5.666c0,-3.174 -2.535,-5.928 -7.57,-5.928c-2.865,0 -5.582,0.934 -6.963,1.867l1.04,3.313c1.009,-0.672 2.982,-1.526 4.952,-1.526c2.688,0 3.878,1.377 3.878,3.058c0,2.39 -2.684,3.351 -4.77,3.351l-2.086,0l0,3.355l2.086,0c2.796,0 5.517,1.228 5.517,4.094c-0.005,1.903 -1.382,3.882 -4.887,3.882z"/>
   <polygon id="svg_16" fill="#08d18b" points="197.734,135.658 187.523,156.001 192.33,156.001 202.579,134.729 202.579,131.78 186.296,131.78 186.296,135.583     197.734,135.583   "/>
   <polygon id="svg_17" fill="#08d18b" points="44.372,187.897 44.444,187.897 44.444,207.974 48.878,207.974 48.878,183.752 45.074,183.752 39.154,186.665     39.931,190.127   "/>
   <path id="svg_18" fill="#08d18b" d="m65.472,208.385c5.811,0 8.87,-4.882 8.87,-12.713c0,-7.113 -2.719,-12.331 -8.569,-12.331c-5.664,0 -8.87,5.031 -8.87,12.597c0.037,7.379 3.015,12.447 8.569,12.447zm0.191,-21.534c2.758,0 4.063,3.313 4.063,8.938c0,5.82 -1.381,9.096 -4.098,9.096c-2.494,0 -4.1,-3.062 -4.1,-8.983c-0.005,-6.036 1.711,-9.051 4.135,-9.051z"/>
   <path id="svg_19" fill="#08d18b" d="m116.66,204.175l-9.913,0l0,-0.074l2.084,-1.825c4.25,-3.916 7.304,-7.341 7.304,-11.598c0,-3.943 -2.604,-7.337 -7.976,-7.337c-3.055,0 -5.703,1.083 -7.456,2.497l1.342,3.243c1.23,-0.928 3.022,-2.016 5.181,-2.016c3.169,0 4.322,1.899 4.322,4.064c-0.04,3.207 -2.721,6.109 -8.422,11.407l-2.868,2.646l0,2.791l16.398,0l0,-3.799l0.004,0l0,0.001z"/>
   <polygon id="svg_20" fill="#08d18b" points="127.371,187.897 127.446,187.897 127.446,207.974 131.882,207.974 131.882,183.752 128.078,183.752     122.151,186.665 122.936,190.127   "/>
   <path id="svg_21" fill="#08d18b" d="m174.586,208.385c5.139,0 8.531,-4.028 8.531,-8.648c0,-4.914 -3.243,-7.901 -7.416,-7.901c-2.422,0 -4.252,0.971 -5.446,2.348l-0.107,0c0.598,-3.355 3.02,-6.445 8.125,-7.043c0.896,-0.111 1.639,-0.148 2.306,-0.111l0,-3.612c-0.56,-0.038 -1.302,-0.038 -2.306,0.103c-3.472,0.266 -6.412,1.461 -8.615,3.584c-2.524,2.381 -4.21,6.143 -4.21,10.805c0.009,6.004 3.248,10.475 9.138,10.475zm-4.289,-10.692c0.705,-1.461 2.235,-2.497 3.953,-2.497c2.679,0 4.209,1.975 4.209,4.808c0,2.902 -1.53,4.956 -3.873,4.956c-3.015,0 -4.509,-2.608 -4.583,-5.815c0,-0.636 0.107,-1.083 0.294,-1.452z"/>
   <path id="svg_22" fill="#08d18b" d="m194.085,208.385c5.815,0 8.867,-4.882 8.867,-12.713c0,-7.113 -2.716,-12.331 -8.568,-12.331c-5.666,0 -8.868,5.031 -8.868,12.597c0.038,7.379 3.015,12.447 8.569,12.447zm0.186,-21.534c2.758,0 4.061,3.313 4.061,8.938c0,5.82 -1.372,9.096 -4.093,9.096c-2.497,0 -4.094,-3.062 -4.094,-8.983c-0.008,-6.036 1.705,-9.051 4.126,-9.051z"/>
   <rect id="svg_38" height="44" width="178" y="14.269501" x="32.26947" stroke-linecap="null" stroke-linejoin="null" stroke-dasharray="null" stroke-width="null" stroke="null" fill="#08d18b"/>
  </g>
  <g id="svg_23"/>
  <g id="svg_24"/>
  <g id="svg_25"/>
  <g id="svg_26"/>
  <g id="svg_27"/>
  <g id="svg_28"/>
  <g id="svg_29"/>
  <g id="svg_30"/>
  <g id="svg_31"/>
  <g id="svg_32"/>
  <g id="svg_33"/>
  <g id="svg_34"/>
  <g id="svg_35"/>
  <g id="svg_36"/>
  <g id="svg_37"/>
  <text stroke="null" transform="matrix(1.7783828217048898,0,0,1.7069243941330086,-112.89043070332731,-24.99051588574855) " font-weight="bold" xml:space="preserve" text-anchor="middle" font-family="Serif" font-size="24" id="svg_39" y="45.269501" x="130.26947" stroke-linecap="null" stroke-linejoin="null" stroke-dasharray="null" stroke-width="0" fill="#ffffff">Tambola</text>
 </g>
</svg>